<svg xmlns="http://www.w3.org/2000/svg" width="1200" height="720" viewBox="0 0 1200 720" role="img" aria-labelledby="title description">
  <title id="title">Visão geral do painel Meu Espaço</title>
  <desc id="description">Ilustração do painel com navegação lateral, resumo do dia, lista de tarefas e anotações.</desc>
  <rect width="1200" height="720" rx="24" fill="#d9dcd8"/>
  <rect x="0" y="0" width="230" height="720" rx="24" fill="#f3f3ed"/>
  <path d="M206 0h24v720h-24z" fill="#f3f3ed"/>
  <rect x="230" y="0" width="970" height="66" fill="#f7f7f1"/>
  <rect x="42" y="32" width="38" height="38" rx="12" fill="#426b55"/>
  <text x="61" y="58" text-anchor="middle" fill="#f7f7f1" font-family="Arial,sans-serif" font-size="24" font-weight="700">m</text>
  <text x="91" y="57" fill="#284434" font-family="Georgia,serif" font-size="24" font-weight="700">meu espaço</text>
  <text x="42" y="111" fill="#7e887f" font-family="Arial,sans-serif" font-size="12" letter-spacing="2">SEU ESPAÇO</text>
  <rect x="26" y="137" width="178" height="48" rx="10" fill="#e4eeea"/>
  <text x="48" y="167" fill="#347778" font-family="Arial,sans-serif" font-size="15">⌂</text>
  <text x="70" y="167" fill="#284434" font-family="Arial,sans-serif" font-size="15" font-weight="700">Início</text>
  <text x="48" y="220" fill="#347778" font-family="Arial,sans-serif" font-size="15">☑</text>
  <text x="70" y="220" fill="#38473d" font-family="Arial,sans-serif" font-size="15">Tarefas</text>
  <text x="48" y="273" fill="#347778" font-family="Arial,sans-serif" font-size="15">▤</text>
  <text x="70" y="273" fill="#38473d" font-family="Arial,sans-serif" font-size="15">Anotações</text>
  <text x="48" y="326" fill="#347778" font-family="Arial,sans-serif" font-size="15">▦</text>
  <text x="70" y="326" fill="#38473d" font-family="Arial,sans-serif" font-size="15">Agenda</text>
  <text x="48" y="379" fill="#347778" font-family="Arial,sans-serif" font-size="15">↗</text>
  <text x="70" y="379" fill="#38473d" font-family="Arial,sans-serif" font-size="15">Progresso</text>
  <text x="48" y="432" fill="#347778" font-family="Arial,sans-serif" font-size="15">◎</text>
  <text x="70" y="432" fill="#38473d" font-family="Arial,sans-serif" font-size="15">Objetivos</text>
  <line x1="26" y1="658" x2="204" y2="658" stroke="#dedfd8"/>
  <circle cx="53" cy="688" r="17" fill="#eee0ce"/>
  <text x="53" y="694" text-anchor="middle" fill="#426b55" font-family="Arial,sans-serif" font-size="15">G</text>
  <text x="80" y="686" fill="#34433a" font-family="Arial,sans-serif" font-size="13" font-weight="700">Seu perfil</text>
  <text x="80" y="702" fill="#7e887f" font-family="Arial,sans-serif" font-size="11">Seu espaço, no seu ritmo</text>
  <text x="274" y="37" fill="#347778" font-family="Arial,sans-serif" font-size="13">Página inicial</text>
  <text x="358" y="37" fill="#8a9189" font-family="Arial,sans-serif" font-size="13">/</text>
  <text x="375" y="37" fill="#38473d" font-family="Arial,sans-serif" font-size="13">Início</text>
  <text x="274" y="112" fill="#8b8d82" font-family="Arial,sans-serif" font-size="12" font-weight="700" letter-spacing="1.5">SEU CANTINHO, SEU RITMO</text>
  <text x="274" y="159" fill="#26352c" font-family="Georgia,serif" font-size="38">Um dia mais claro começa aqui.</text>
  <text x="274" y="187" fill="#747d75" font-family="Arial,sans-serif" font-size="15">Tarefas, ideias e planos juntos em um espaço que acompanha você.</text>
  <rect x="1010" y="117" width="142" height="46" rx="8" fill="#426b55"/>
  <text x="1081" y="146" text-anchor="middle" fill="#fff" font-family="Arial,sans-serif" font-size="14" font-weight="700">＋ Adicionar</text>
  <rect x="274" y="218" width="273" height="102" rx="10" fill="#fbfbf7"/>
  <rect x="274" y="218" width="273" height="4" rx="2" fill="#cf765d"/>
  <text x="294" y="257" fill="#68736b" font-family="Arial,sans-serif" font-size="14">Tarefas pendentes</text>
  <text x="294" y="292" fill="#293a30" font-family="Georgia,serif" font-size="30">3</text>
  <text x="344" y="292" fill="#7a8278" font-family="Arial,sans-serif" font-size="13">passos para hoje</text>
  <rect x="563" y="218" width="273" height="102" rx="10" fill="#fbfbf7"/>
  <rect x="563" y="218" width="273" height="4" rx="2" fill="#347778"/>
  <text x="583" y="257" fill="#68736b" font-family="Arial,sans-serif" font-size="14">Anotações</text>
  <text x="583" y="292" fill="#293a30" font-family="Georgia,serif" font-size="30">3</text>
  <text x="633" y="292" fill="#7a8278" font-family="Arial,sans-serif" font-size="13">ideias guardadas</text>
  <rect x="852" y="218" width="300" height="102" rx="10" fill="#fbfbf7"/>
  <rect x="852" y="218" width="300" height="4" rx="2" fill="#748b60"/>
  <text x="872" y="257" fill="#68736b" font-family="Arial,sans-serif" font-size="14">Progresso da semana</text>
  <rect x="872" y="279" width="188" height="7" rx="4" fill="#e1e6dd"/>
  <rect x="872" y="279" width="82" height="7" rx="4" fill="#347778"/>
  <text x="1073" y="289" fill="#347778" font-family="Arial,sans-serif" font-size="24" font-weight="700">40%</text>
  <rect x="274" y="346" width="425" height="333" rx="12" fill="#fbfbf7"/>
  <text x="298" y="379" fill="#8b8d82" font-family="Arial,sans-serif" font-size="11" font-weight="700" letter-spacing="1.2">QUINTA-FEIRA</text>
  <text x="298" y="414" fill="#26352c" font-family="Georgia,serif" font-size="25">O que vem primeiro?</text>
  <text x="625" y="412" fill="#347778" font-family="Arial,sans-serif" font-size="13">Ver todas →</text>
  <line x1="298" y1="440" x2="675" y2="440" stroke="#e8e8e1"/>
  <circle cx="309" cy="473" r="9" fill="#347778"/>
  <path d="m305 473 3 3 6-7" fill="none" stroke="#fff" stroke-width="2"/>
  <text x="330" y="478" fill="#92958e" font-family="Arial,sans-serif" font-size="15" text-decoration="line-through">Revisar o planejamento</text>
  <line x1="298" y1="500" x2="675" y2="500" stroke="#e8e8e1"/>
  <circle cx="309" cy="533" r="9" fill="#fff" stroke="#aeb9ae"/>
  <text x="330" y="538" fill="#38473d" font-family="Arial,sans-serif" font-size="15">Estudar um pouco</text>
  <line x1="298" y1="560" x2="675" y2="560" stroke="#e8e8e1"/>
  <circle cx="309" cy="593" r="9" fill="#fff" stroke="#aeb9ae"/>
  <text x="330" y="598" fill="#38473d" font-family="Arial,sans-serif" font-size="15">Separar um tempo para mim</text>
  <line x1="298" y1="620" x2="675" y2="620" stroke="#e8e8e1"/>
  <text x="298" y="653" fill="#347778" font-family="Arial,sans-serif" font-size="14">＋ Adicionar uma tarefa</text>
  <rect x="715" y="346" width="437" height="333" rx="12" fill="#fbfbf7"/>
  <text x="740" y="379" fill="#8b8d82" font-family="Arial,sans-serif" font-size="11" font-weight="700" letter-spacing="1.2">GUARDADAS COM CARINHO</text>
  <text x="740" y="414" fill="#26352c" font-family="Georgia,serif" font-size="25">Anotações recentes</text>
  <rect x="740" y="440" width="185" height="181" rx="9" fill="#f3f3ed"/>
  <text x="758" y="468" fill="#347778" font-family="Arial,sans-serif" font-size="11" font-weight="700">✎ ANOTAÇÃO</text>
  <text x="758" y="504" fill="#26352c" font-family="Georgia,serif" font-size="18">Uma ideia para</text>
  <text x="758" y="528" fill="#26352c" font-family="Georgia,serif" font-size="18">o seu projeto</text>
  <text x="758" y="564" fill="#707970" font-family="Arial,sans-serif" font-size="13">Anote pensamentos e</text>
  <text x="758" y="584" fill="#707970" font-family="Arial,sans-serif" font-size="13">retome quando quiser.</text>
  <rect x="940" y="440" width="188" height="181" rx="9" fill="#f3f3ed"/>
  <text x="958" y="468" fill="#347778" font-family="Arial,sans-serif" font-size="11" font-weight="700">✎ ANOTAÇÃO</text>
  <text x="958" y="504" fill="#26352c" font-family="Georgia,serif" font-size="18">Pequenos passos</text>
  <text x="958" y="528" fill="#26352c" font-family="Georgia,serif" font-size="18">também contam</text>
  <text x="958" y="564" fill="#707970" font-family="Arial,sans-serif" font-size="13">Suas listas e lembretes</text>
  <text x="958" y="584" fill="#707970" font-family="Arial,sans-serif" font-size="13">sempre por perto.</text>
  <text x="740" y="653" fill="#347778" font-family="Arial,sans-serif" font-size="14">＋ Nova anotação</text>
</svg>
